<svg xmlns="http://www.w3.org/2000/svg" viewBox="0 0 1016.49 1142.06"><g id="Layer_2" data-name="Layer 2"><g id="Layer_1-2" data-name="Layer 1"><path d="M97.62,130.44c5.35-5.35,67.72-44.56,123-55.25s119.4-30.29,188.9-57S512.85,3.91,548.49.34,637.6,21.73,675,41.33,760.56,142.91,782,187.46s12.47,99.8,0,121.19-10.69,55.24-10.69,73.06-19.61,73.07-25,106.93,3.56,135.44,12.47,181.77,25,89.11,73.07,103.36S956.59,829,956.59,829c19.61,17.82,53.47,73.06,58.81,110.49s-8.91,65.94-46.33,103.36-71.29,39.21-99.8,42.77-124.75-1.78-124.75-1.78-37.42,0-90.88,26.73c-97.66,48.83-139,26.73-160.39,25s-76.63-37.43-85.54-71.23-28.52-48.17-39.21-48.17-35.64,14.25-76.63,35.64-85.54,8.91-96.23,8.91-51.68-16-82-33.86-44.55-37.42-64.15-62.37S22.78,916.34,6.74,855.75,6.74,738.13,19.21,690s53.46-90.88,90.89-131.87,83.76-53.46,103.36-62.37,58.81-24.95,82-33.86,24.95-33.86,24.95-53.47S288.31,378.15,274.05,371s-60.59-10.69-92.67-14.26S120.79,330,94.06,310.43,65.55,255.18,62,216,97.62,130.44,97.62,130.44ZM468.3,700.71c-28.51,12.47-65.94,33.86-82,60.59s-28.51,76.63-14.25,112.27,31.18,48.12,45,48.12,61.93-46.34,74.41-69.5S536,807.63,537.8,786.25s-11-62.38-29.56-74.85S468.3,700.71,468.3,700.71Z"/></g></g></svg>