<svg width="32" height="32" viewBox="0 0 32 32" fill="none" xmlns="http://www.w3.org/2000/svg">
<circle cx="16" cy="16" r="14.625" stroke="#2B3A2B" stroke-width="1.25"/>
<path d="M16 2C13.2311 2 10.5243 2.82109 8.22201 4.35943C5.91973 5.89777 4.12531 8.08427 3.06569 10.6424C2.00606 13.2006 1.72881 16.0155 2.269 18.7313C2.8092 21.447 4.14257 23.9416 6.1005 25.8995C8.05844 27.8574 10.553 29.1908 13.2687 29.731C15.9845 30.2712 18.7994 29.9939 21.3576 28.9343C23.9157 27.8747 26.1022 26.0803 27.6406 23.778C29.1789 21.4757 30 18.7689 30 16C29.9958 12.2883 28.5195 8.72973 25.8949 6.10512C23.2703 3.48052 19.7117 2.00418 16 2ZM4.02 16.394L5.3584 16.8398L7 19.3027V20.5858C7 20.851 7.10536 21.1054 7.2929 21.2929L10 24V26.3765C8.23797 25.3568 6.76448 23.9055 5.7183 22.159C4.67211 20.4126 4.08767 18.4287 4.02 16.394ZM16 28C15.135 27.9983 14.2727 27.9029 13.4282 27.7153L14 26L15.8046 21.4884C15.8648 21.3378 15.8876 21.1748 15.8708 21.0134C15.854 20.8521 15.7982 20.6973 15.7082 20.5623L14.2969 18.4453C14.2056 18.3083 14.0818 18.196 13.9367 18.1183C13.7915 18.0406 13.6294 18 13.4648 18H8.5348L7.2866 16.1274L9.4141 14H11V16H13V13.2656L16.8682 6.4961L15.1318 5.5039L14.2769 7H11.5352L10.4492 5.3711C11.9071 4.60167 13.5094 4.1446 15.1539 4.02905C16.7983 3.9135 18.4488 4.14201 20 4.7V8C20 8.26522 20.1054 8.51957 20.2929 8.70711C20.4804 8.89464 20.7348 9 21 9H22.4648C22.6294 9.00001 22.7915 8.95937 22.9367 8.88169C23.0818 8.804 23.2056 8.69169 23.2969 8.5547L24.1738 7.2393C25.3162 8.30441 26.2403 9.58174 26.8945 11H22.82C22.5888 11 22.3648 11.0801 22.186 11.2267C22.0072 11.3732 21.8847 11.5772 21.8394 11.8039L21.1173 16.2747C21.0833 16.485 21.1174 16.7006 21.2145 16.8902C21.3117 17.0797 21.4668 17.2333 21.6573 17.3286L25 19L25.6851 23.0557C24.5752 24.5854 23.1192 25.8308 21.4359 26.6901C19.7526 27.5494 17.8899 27.9983 16 28Z" fill="#2B3A2B"/>
<path d="M30.4167 15.2737C30.1859 14.3826 29.8462 13.6373 29.2503 12.9387C29.2029 12.8831 28.7224 12.4137 28.8266 12.3304C29.0175 12.1777 29.8791 13.2479 29.9793 13.4034C30.0285 13.4798 30.3422 14.0878 30.1524 13.6973C29.9385 13.2571 29.6891 12.8327 29.4963 12.3828C29.337 12.0111 29.2317 11.6781 29.0042 11.3326C28.7144 10.8922 28.4394 10.458 28.2434 9.96801C28.113 9.64207 28.091 9.27384 27.8743 8.99982C27.2693 8.23466 26.6295 7.5012 26.0199 6.74448C25.5842 6.20358 24.9681 5.83591 24.5209 5.30927C24.3791 5.14224 24.2343 5.02716 24.0858 4.87871C23.9308 4.72373 23.854 4.54508 23.6507 4.40714C23.1773 4.08589 22.6709 3.84656 22.2155 3.505" stroke="#2B3A2B" stroke-linecap="round" stroke-linejoin="round"/>
<path d="M22.0104 3.58701C21.5089 3.41669 21.0138 3.21478 20.5251 3.01293C20.2535 2.90074 19.952 2.80269 19.705 2.64387C19.3463 2.41328 18.8036 2.31582 18.3791 2.31582C17.734 2.31582 17.0959 2.11079 16.4541 2.11079C16.0686 2.11079 15.708 2.01237 15.3287 1.99005C15.0513 1.97374 14.7664 1.8776 14.4972 1.91488C13.8621 2.00282 13.229 1.98778 12.5882 1.98778C12.4053 1.98778 12.2511 2.00114 12.087 2.0789C11.5677 2.32485 11.0813 2.55417 10.5287 2.74411C10.2608 2.83622 10.0307 2.91929 9.81114 3.09494C9.61267 3.25372 9.47203 3.46281 9.2325 3.58701C9.02765 3.69323 8.83507 3.78424 8.64247 3.91506C8.50177 4.01063 8.41063 4.1755 8.24836 4.22488C7.65731 4.40477 7.19422 5.10837 6.80631 5.5553C6.49816 5.91035 6.22692 6.31949 5.82217 6.57134C5.49225 6.77662 5.3463 7.03871 5.12506 7.35046C4.62205 8.05924 3.90018 8.65626 3.53494 9.45316C3.38243 9.7859 3.04898 10.1828 3.02236 10.5421C2.98035 11.1093 2.66351 11.6506 2.43233 12.155C2.2563 12.5391 2.09785 12.912 1.97899 13.3214C1.84075 13.7975 1.84109 14.3095 1.83547 14.8044C1.8286 15.4083 1.79446 16.0118 1.79446 16.6178C1.79446 17.1685 1.99002 17.6912 2.21363 18.1943C2.31667 18.4261 2.54546 18.4518 2.67381 18.6385C2.78727 18.8035 2.7376 19.0723 2.7376 19.2604C2.7376 19.6565 2.69659 20.04 2.69659 20.4359C2.69659 20.6053 2.70244 20.7089 2.80139 20.8528C2.99101 21.1287 3.18319 21.3844 3.32991 21.6912C3.46348 21.9705 3.57822 22.2539 3.66024 22.5546C3.71011 22.7374 3.67874 23.1592 3.84476 23.2699" stroke="#2B3A2B" stroke-linecap="round" stroke-linejoin="round"/>
<path d="M3.68074 23.0649C3.6973 23.4294 3.8952 23.6359 4.08168 23.926C4.28962 24.2495 4.44743 24.5557 4.715 24.8395C4.9501 25.0889 5.11461 25.3736 5.36198 25.6073C5.71168 25.9375 6.11842 26.2189 6.53066 26.4479C7.10602 26.7675 7.64671 27.1802 8.23241 27.473C8.54244 27.6281 8.86758 27.7405 9.17555 27.8945C9.48609 28.0498 9.76245 28.2441 10.0595 28.4276C10.707 28.8275 11.4624 28.8891 12.1189 29.2887C12.3265 29.4151 12.493 29.4128 12.7294 29.4618C13.1355 29.546 13.5477 29.5984 13.9528 29.6874C14.1603 29.7329 14.3614 29.7747 14.5473 29.8628C14.6002 29.8878 14.7522 29.8866 14.8116 29.8696C15.0223 29.8094 15.2419 29.8323 15.4631 29.8514C15.9657 29.8947 16.4762 29.8719 16.9804 29.8719C17.2921 29.8719 17.5395 29.798 17.846 29.758C18.334 29.6943 18.8437 29.6872 19.3245 29.5848C19.6341 29.519 19.9363 29.3751 20.2449 29.3365C20.5727 29.2956 20.8672 29.1187 21.1493 28.9698C21.2653 28.9086 21.3722 28.7777 21.4865 28.7328C21.6651 28.6627 21.8998 28.6585 22.0583 28.5529C22.3349 28.3684 22.5987 28.1754 22.8716 27.9856C23.011 27.8886 23.267 27.6376 23.4457 27.6166C23.617 27.5964 23.8853 27.3879 24.0288 27.2885C24.2864 27.1102 24.5194 26.9241 24.7578 26.7121C24.8808 26.6029 25.0186 26.4808 25.0859 26.3294C25.1065 26.2831 25.2185 26.2755 25.259 26.2634C25.4299 26.2121 25.5591 26.1232 25.701 26.0173C26.0004 25.7938 26.3233 25.4886 26.4801 25.1357C26.6167 24.8284 26.7827 24.6333 26.9927 24.3748C27.2087 24.1089 27.3125 23.762 27.5463 23.5159C27.7895 23.2599 28.0607 22.9797 28.2411 22.6753C28.6244 22.0284 28.71 21.2113 29.1364 20.6045C29.351 20.2991 29.333 19.8801 29.4143 19.5315C29.6131 18.6797 29.9246 17.8215 29.9246 16.939C29.9246 16.7397 29.8316 16.223 29.9838 16.0528C30.1952 15.8166 30.2213 15.5458 30.2527 15.2327" stroke="#2B3A2B" stroke-linecap="round" stroke-linejoin="round"/>
</svg>
