<svg width="32" height="32" viewBox="0 0 32 32" fill="none" xmlns="http://www.w3.org/2000/svg">
<path d="M16 2C13.2311 2 10.5243 2.82109 8.22202 4.35943C5.91973 5.89777 4.12532 8.08427 3.06569 10.6424C2.00607 13.2006 1.72882 16.0155 2.26901 18.7313C2.80921 21.447 4.14258 23.9416 6.10051 25.8995C8.05845 27.8574 10.553 29.1908 13.2687 29.731C15.9845 30.2712 18.7994 29.9939 21.3576 28.9343C23.9157 27.8747 26.1022 26.0803 27.6406 23.778C29.1789 21.4757 30 18.7689 30 16C29.9958 12.2883 28.5195 8.72973 25.8949 6.10512C23.2703 3.48052 19.7118 2.00418 16 2V2ZM21 5.1055C22.059 5.59377 23.0412 6.23361 23.9158 7.0049L23.5034 8H21V5.1055ZM13.3784 27.7026C11.2145 27.2218 9.22652 26.1498 7.63576 24.6061C6.045 23.0624 4.91389 21.1075 4.36837 18.959C3.82284 16.8105 3.8843 14.5527 4.54591 12.4371C5.20752 10.3215 6.44331 8.43099 8.11571 6.9761L9.46481 9H12.8071L11.3071 13H7.27931L5.89671 17.1475L8.46481 21H13.4648L14.8967 23.1475L13.3784 27.7026ZM16 28C15.7966 28 15.5984 27.98 15.3975 27.97L16.7942 23.78C16.8913 23.4913 16.9208 23.1841 16.8803 22.8822C16.8399 22.5803 16.7305 22.2917 16.5608 22.0388L15.1289 19.8913C14.9466 19.617 14.6992 19.392 14.4089 19.2365C14.1185 19.081 13.7942 18.9997 13.4648 19H9.53481L8.10331 16.8525L8.72071 15H11V17H13V14.1812L15.9363 6.3512L14.0637 5.649L13.5571 7H10.5352L9.72801 5.7891C11.0961 4.93515 12.6247 4.37085 14.2195 4.13106C15.8143 3.89128 17.4413 3.98111 19 4.395V8C19.0007 8.53023 19.2116 9.03855 19.5865 9.41348C19.9615 9.78841 20.4698 9.99934 21 10H23.5857C23.8485 10.0007 24.1088 9.94933 24.3516 9.84876C24.5943 9.74819 24.8147 9.60045 25 9.4141L25.1406 9.2734L25.4224 8.5934C26.2297 9.61908 26.8639 10.7698 27.3 12H22.5986C22.1258 11.9985 21.6679 12.1651 21.3067 12.4701C20.9455 12.7752 20.7045 13.1987 20.6267 13.665L20.03 17.1064C19.9577 17.514 20.0143 17.934 20.192 18.3079C20.3696 18.6818 20.6594 18.991 21.021 19.1924L23.1857 20.6562L24.6442 24.3022C23.528 25.4707 22.1865 26.4008 20.7008 27.0363C19.2151 27.6719 17.616 27.9997 16 28V28ZM24.8145 19.3437L22.1 17.5088L22 17.4488L22.5986 14H27.8193C28.3432 16.9505 27.7192 19.9897 26.0752 22.4951L24.8145 19.3437Z" fill="#2B3A2B"/>
</svg>
