<svg width="417" height="468" viewBox="0 0 417 468" fill="none" xmlns="http://www.w3.org/2000/svg">
<path d="M40.0024 53.4545C42.1948 51.2621 67.7533 35.1943 90.4065 30.8136C113.06 26.433 139.335 18.4011 167.816 7.45565C196.296 -3.48983 210.159 1.60385 224.764 0.140902C239.369 -1.32205 261.281 8.9063 276.607 16.9382C291.933 24.9701 311.668 58.5646 320.454 76.8207C329.24 95.0768 325.564 117.718 320.454 126.483C315.344 135.249 316.074 149.12 316.074 156.422C316.074 163.725 308.038 186.366 305.829 200.241C303.62 214.117 307.288 255.743 310.939 274.729C314.59 293.714 321.184 311.245 340.882 317.084C360.581 322.924 391.999 339.717 391.999 339.717C400.035 347.02 413.911 369.656 416.099 384.995C418.287 400.333 412.448 412.016 397.113 427.351C381.779 442.685 367.9 443.418 356.217 444.877C344.533 446.336 305.095 444.148 305.095 444.148C305.095 444.148 289.761 444.148 267.854 455.101C227.834 475.112 210.893 466.055 202.127 465.346C193.362 464.637 170.725 450.008 167.074 436.157C163.423 422.306 155.387 416.417 151.006 416.417C146.626 416.417 136.401 422.257 119.604 431.022C102.807 439.788 84.5506 434.673 80.17 434.673C75.7893 434.673 58.9921 428.117 46.5672 420.798C34.1424 413.479 28.3111 405.464 20.2792 395.239C12.2474 385.015 9.33376 375.508 2.76073 350.679C-3.81229 325.85 2.76073 302.48 7.87081 282.756C12.9809 263.033 29.7782 245.515 45.1166 228.717C60.455 211.92 79.4406 206.81 87.4724 203.159C95.5043 199.508 111.572 192.935 121.075 189.283C130.578 185.632 131.299 175.408 131.299 167.372C131.299 159.336 118.145 154.963 112.302 152.033C106.458 149.103 87.4724 147.653 74.3264 146.19C61.1803 144.727 49.4972 135.232 38.5436 127.213C27.5899 119.193 26.8605 104.572 25.4057 88.5161C23.9509 72.4606 40.0024 53.4545 40.0024 53.4545ZM191.903 287.145C180.22 292.255 164.882 301.021 158.3 311.974C151.719 322.928 146.617 343.377 152.461 357.981C158.305 372.586 165.238 377.7 170.901 377.7C176.565 377.7 196.28 358.711 201.394 349.22C206.508 339.729 219.646 330.96 220.384 322.199C221.121 313.437 215.876 296.636 208.27 291.526C200.664 286.416 191.903 287.145 191.903 287.145Z" fill="#2B3A2B"/>
</svg>
