<svg width="1017" height="1143" viewBox="0 0 1017 1143" fill="none" xmlns="http://www.w3.org/2000/svg">
<path d="M97.6199 130.44C102.97 125.09 165.34 85.8801 220.62 75.1901C275.9 64.5001 340.02 44.9001 409.52 18.1901C479.02 -8.51994 512.85 3.91006 548.49 0.340056C584.13 -3.22994 637.6 21.7301 675 41.3301C712.4 60.9301 760.56 142.91 782 187.46C803.44 232.01 794.47 287.26 782 308.65C769.53 330.04 771.31 363.89 771.31 381.71C771.31 399.53 751.7 454.78 746.31 488.64C740.92 522.5 749.87 624.08 758.78 670.41C767.69 716.74 783.78 759.52 831.85 773.77C879.92 788.02 956.59 829 956.59 829C976.2 846.82 1010.06 902.06 1015.4 939.49C1020.74 976.92 1006.49 1005.43 969.07 1042.85C931.65 1080.27 897.78 1082.06 869.27 1085.62C840.76 1089.18 744.52 1083.84 744.52 1083.84C744.52 1083.84 707.1 1083.84 653.64 1110.57C555.98 1159.4 514.64 1137.3 493.25 1135.57C471.86 1133.84 416.62 1098.14 407.71 1064.34C398.8 1030.54 379.19 1016.17 368.5 1016.17C357.81 1016.17 332.86 1030.42 291.87 1051.81C250.88 1073.2 206.33 1060.72 195.64 1060.72C184.95 1060.72 143.96 1044.72 113.64 1026.86C83.3199 1009 69.0899 989.44 49.4899 964.49C29.8899 939.54 22.7799 916.34 6.73988 855.75C-9.30012 795.16 6.73988 738.13 19.2099 690C31.6799 641.87 72.6699 599.12 110.1 558.13C147.53 517.14 193.86 504.67 213.46 495.76C233.06 486.85 272.27 470.81 295.46 461.9C318.65 452.99 320.41 428.04 320.41 408.43C320.41 388.82 288.31 378.15 274.05 371C259.79 363.85 213.46 360.31 181.38 356.74C149.3 353.17 120.79 330 94.0599 310.43C67.3299 290.86 65.5499 255.18 61.9999 216C58.4499 176.82 97.6199 130.44 97.6199 130.44ZM468.3 700.71C439.79 713.18 402.36 734.57 386.3 761.3C370.24 788.03 357.79 837.93 372.05 873.57C386.31 909.21 403.23 921.69 417.05 921.69C430.87 921.69 478.98 875.35 491.46 852.19C503.94 829.03 536 807.63 537.8 786.25C539.6 764.87 526.8 723.87 508.24 711.4C489.68 698.93 468.3 700.71 468.3 700.71Z" fill="#2B3A2B"/>
</svg>
