<svg width="30" height="30" viewBox="0 0 30 30" fill="none" xmlns="http://www.w3.org/2000/svg">
<path d="M15 1C12.2311 1 9.52431 1.82109 7.22202 3.35943C4.91973 4.89777 3.12532 7.08427 2.06569 9.64243C1.00607 12.2006 0.728819 15.0155 1.26901 17.7313C1.80921 20.447 3.14258 22.9416 5.10051 24.8995C7.05845 26.8574 9.55301 28.1908 12.2687 28.731C14.9845 29.2712 17.7994 28.9939 20.3576 27.9343C22.9157 26.8747 25.1022 25.0803 26.6406 22.778C28.1789 20.4757 29 17.7689 29 15C28.9958 11.2883 27.5195 7.72973 24.8949 5.10512C22.2703 2.48052 18.7118 1.00418 15 1V1ZM20 4.1055C21.059 4.59377 22.0412 5.23361 22.9158 6.0049L22.5034 7H20V4.1055ZM12.3784 26.7026C10.2145 26.2218 8.22652 25.1498 6.63576 23.6061C5.045 22.0624 3.91389 20.1075 3.36837 17.959C2.82284 15.8105 2.8843 13.5527 3.54591 11.4371C4.20752 9.32149 5.44331 7.43099 7.11571 5.9761L8.46481 8H11.8071L10.3071 12H6.27931L4.89671 16.1475L7.46481 20H12.4648L13.8967 22.1475L12.3784 26.7026ZM15 27C14.7966 27 14.5984 26.98 14.3975 26.97L15.7942 22.78C15.8913 22.4913 15.9208 22.1841 15.8803 21.8822C15.8399 21.5803 15.7305 21.2917 15.5608 21.0388L14.1289 18.8913C13.9466 18.617 13.6992 18.392 13.4089 18.2365C13.1185 18.081 12.7942 17.9997 12.4648 18H8.53481L7.10331 15.8525L7.72071 14H10V16H12V13.1812L14.9363 5.3512L13.0637 4.649L12.5571 6H9.53521L8.72801 4.7891C10.0961 3.93515 11.6247 3.37085 13.2195 3.13106C14.8143 2.89128 16.4413 2.98111 18 3.395V7C18.0007 7.53023 18.2116 8.03855 18.5865 8.41348C18.9615 8.78841 19.4698 8.99934 20 9H22.5857C22.8485 9.00074 23.1088 8.94933 23.3516 8.84876C23.5943 8.74819 23.8147 8.60045 24 8.4141L24.1406 8.2734L24.4224 7.5934C25.2297 8.61908 25.8639 9.76977 26.3 11H21.5986C21.1258 10.9985 20.6679 11.1651 20.3067 11.4701C19.9455 11.7752 19.7045 12.1987 19.6267 12.665L19.03 16.1064C18.9577 16.514 19.0143 16.934 19.192 17.3079C19.3696 17.6818 19.6594 17.991 20.021 18.1924L22.1857 19.6562L23.6442 23.3022C22.528 24.4707 21.1865 25.4008 19.7008 26.0363C18.2151 26.6719 16.616 26.9997 15 27V27ZM23.8145 18.3437L21.1 16.5088L21 16.4488L21.5986 13H26.8193C27.3432 15.9505 26.7192 18.9897 25.0752 21.4951L23.8145 18.3437Z" fill="#2B3A2B" stroke="#2B3A2B" stroke-linejoin="round"/>
</svg>
